<svg width="529" height="302" xmlns="http://www.w3.org/2000/svg" xmlns:xlink="http://www.w3.org/1999/xlink" overflow="hidden"><defs><clipPath id="clip0"><rect x="0" y="0" width="529" height="302"/></clipPath></defs><g clip-path="url(#clip0)"><rect x="0" y="0" width="529" height="301.762" fill="#FFFFFF"/><rect x="184" y="72.9425" width="236" height="155.877" stroke="#042433" stroke-width="1.99937" stroke-miterlimit="8" fill="#156082" fill-opacity="0.4"/><path d="M201 169.366C201 153.087 214.431 139.89 231 139.89 247.569 139.89 261 153.087 261 169.366 261 185.646 247.569 198.843 231 198.843 214.431 198.843 201 185.646 201 169.366ZM220.869 169.366C220.869 174.681 225.405 178.99 231 178.99 236.595 178.99 241.131 174.681 241.131 169.366 241.131 164.051 236.595 159.743 231 159.743 225.405 159.743 220.869 164.051 220.869 169.366Z" stroke="#042433" stroke-width="1.99937" stroke-miterlimit="8" fill="#156082" fill-rule="evenodd"/><rect x="301" y="140.889" width="101" height="56.9551" stroke="#042433" stroke-width="1.99937" stroke-miterlimit="8" fill="#156082"/><rect x="201" y="86.9314" width="60" height="14.9882" stroke="#042433" stroke-width="1.99937" stroke-miterlimit="8" fill="#156082"/><text font-family="Times New Roman,Times New Roman_MSFontService,sans-serif" font-weight="400" font-size="13.3186" transform="matrix(1 0 0 0.999212 210.869 99)">Trigger</text><path d="M232 101.92 232 132.934 230 132.934 230 101.92ZM234.999 131.603 231 139.594 227.001 131.603Z"/><path d="M261 167.868 294.354 167.868 294.354 169.866 261 169.866ZM293.021 164.871 301.019 168.867 293.021 172.863Z"/><path d="M84.0019 149.882 177.038 150.055 177.034 152.053 83.9981 151.88ZM175.711 147.056 183.701 151.066 175.696 155.047Z"/><rect x="114" y="129.898" width="54" height="41.9669" stroke="#042433" stroke-width="1.99937" stroke-miterlimit="8" fill="#F2AA84" fill-opacity="0.8"/><text font-family="Times New Roman,Times New Roman_MSFontService,sans-serif" font-weight="400" font-size="13.3186" transform="matrix(1 0 0 0.999212 123.436 147)">Video</text><text font-family="Times New Roman,Times New Roman_MSFontService,sans-serif" font-weight="400" font-size="13.3186" transform="matrix(1 0 0 0.999212 123.436 163)">Daten</text><rect x="450" y="125.901" width="73" height="49.9606" stroke="#042433" stroke-width="1.99937" stroke-miterlimit="8" fill="#156082"/><text font-family="Times New Roman,Times New Roman_MSFontService,sans-serif" font-weight="400" font-size="13.3186" transform="matrix(1 0 0 0.999212 464.937 156)">Kamera</text><rect x="-2" y="125.901" width="86" height="49.9606" stroke="#042433" stroke-width="1.99937" stroke-miterlimit="8" fill="#156082"/><text font-family="Times New Roman,Times New Roman_MSFontService,sans-serif" font-weight="400" font-size="13.3186" transform="matrix(1 0 0 0.999212 19.9665 156)">Kamera</text><path d="M420 149.882 443.177 149.882 443.176 151.88 420 151.88ZM441.844 146.886 449.841 150.881 441.844 154.877Z"/><path d="M184.724 150.192 197.537 163.647 196.088 165.024 183.276 151.57ZM198.79 160.616 201.407 169.159 192.997 166.125Z"/><path d="M0.711364-0.701254 14.0549 12.8346 12.6321 14.2371-0.711364 0.701254ZM15.254 9.78237 18.0185 18.2783 9.56305 15.3924Z" transform="matrix(1.00079 0 0 -1 402 169.159)"/><text font-family="Times New Roman,Times New Roman_MSFontService,sans-serif" font-weight="400" font-size="13.3186" transform="matrix(1 0 0 0.999212 309.242 166)">Verarbeitung &amp;</text><text font-family="Times New Roman,Times New Roman_MSFontService,sans-serif" font-weight="400" font-size="13.3186" transform="matrix(1 0 0 0.999212 309.242 182)">Komprimierung</text><text font-family="Times New Roman,Times New Roman_MSFontService,sans-serif" font-weight="400" font-size="13.3186" transform="matrix(1 0 0 0.999212 194.619 209)">Ringbuffer</text><text font-family="Times New Roman,Times New Roman_MSFontService,sans-serif" font-weight="400" font-size="13.3186" transform="matrix(1 0 0 0.999212 194.619 225)">(ca. 3s Video)</text><text font-family="Times New Roman,Times New Roman_MSFontService,sans-serif" font-weight="400" font-size="13.3186" transform="matrix(1 0 0 0.999212 184.944 65)">HB10</text></g></svg>