<svg width="605" height="302" xmlns="http://www.w3.org/2000/svg" xmlns:xlink="http://www.w3.org/1999/xlink" overflow="hidden"><g><rect x="0" y="0" width="605" height="301.501" fill="#FFFFFF"/><rect x="191" y="72.8793" width="236" height="156.74" stroke="#042433" stroke-width="2.0011" stroke-miterlimit="8" fill="#156082" fill-opacity="0.4"/><rect x="308" y="141.765" width="101" height="55.9074" stroke="#042433" stroke-width="2.0011" stroke-miterlimit="8" fill="#AEAEAE"/><rect x="208" y="86.8562" width="60.0001" height="14.9753" stroke="#042433" stroke-width="2.0011" stroke-miterlimit="8" fill="#AEAEAE"/><text font-family="Times New Roman,Times New Roman_MSFontService,sans-serif" font-weight="400" font-size="13.3186" transform="matrix(1 0 0 0.998347 218.075 99)">Trigger</text><path d="M239.001 101.831 239.001 132.846 237 132.846 236.999 101.831ZM242.002 131.514 238 139.506 233.998 131.514Z"/><path d="M268 168.72 301.383 168.72 301.383 170.718 268 170.718ZM300.049 165.724 308.053 169.719 300.049 173.715Z"/><path d="M91.0018 149.752 184.118 149.924 184.115 151.922 90.9981 151.749ZM182.79 146.925 190.787 150.936 182.775 154.916Z"/><rect x="99" y="129.785" width="76.0001" height="43.9273" stroke="#042433" stroke-width="2.0011" stroke-miterlimit="8" fill="#F2AA84" fill-opacity="0.8"/><text font-family="Times New Roman,Times New Roman_MSFontService,sans-serif" font-weight="400" font-size="13.3186" transform="matrix(1 0 0 0.998347 102.741 148)">Video</text><text font-family="Times New Roman,Times New Roman_MSFontService,sans-serif" font-weight="400" font-size="13.3186" transform="matrix(1 0 0 0.998347 138.761 148)">Daten</text><text font-family="Times New Roman,Times New Roman_MSFontService,sans-serif" font-weight="400" font-size="13.3186" transform="matrix(1 0 0 0.998347 102.741 164)">(</text><text font-family="Times New Roman,Times New Roman_MSFontService,sans-serif" font-weight="400" font-size="13.3186" transform="matrix(1 0 0 0.998347 107.244 164)">raw</text><text font-family="Times New Roman,Times New Roman_MSFontService,sans-serif" font-weight="400" font-size="13.3186" transform="matrix(1 0 0 0.998347 127.422 164)">)</text><rect x="526" y="125.792" width="73.9999" height="50.9157" stroke="#042433" stroke-width="2.0011" stroke-miterlimit="8" fill="#AEAEAE"/><text font-family="Times New Roman,Times New Roman_MSFontService,sans-serif" font-weight="400" font-size="13.3186" transform="matrix(1 0 0 0.998347 545.444 156)">Server</text><rect x="5.00003" y="125.792" width="85.9999" height="49.9173" stroke="#042433" stroke-width="2.0011" stroke-miterlimit="8" fill="#AEAEAE"/><text font-family="Times New Roman,Times New Roman_MSFontService,sans-serif" font-weight="400" font-size="13.3186" transform="matrix(1 0 0 0.998347 27.0071 156)">Kamera</text><path d="M427 149.752 519.526 149.766 519.526 151.764 427 151.749ZM518.193 146.769 526.196 150.766 518.191 154.76Z"/><path d="M191.639 149.982 206.881 162.601 205.604 164.139 190.361 151.519ZM207.77 159.445 211.377 167.621 202.661 165.596Z"/><path d="M0.711364-0.701254 14.0549 12.8346 12.6321 14.2371-0.711364 0.701254ZM15.254 9.78237 18.0185 18.2783 9.56305 15.3924Z" transform="matrix(1.00166 0 0 -1 409 169.029)"/><text font-family="Times New Roman,Times New Roman_MSFontService,sans-serif" font-weight="400" font-size="13.3186" transform="matrix(1 0 0 0.998347 316.533 166)">Verarbeitung &amp;</text><text font-family="Times New Roman,Times New Roman_MSFontService,sans-serif" font-weight="400" font-size="13.3186" transform="matrix(1 0 0 0.998347 316.533 182)">Komprimierung</text><text font-family="Times New Roman,Times New Roman_MSFontService,sans-serif" font-weight="400" font-size="13.3186" transform="matrix(1 0 0 0.998347 201.811 209)">Ringbuffer</text><text font-family="Times New Roman,Times New Roman_MSFontService,sans-serif" font-weight="400" font-size="13.3186" transform="matrix(1 0 0 0.998347 201.811 225)">(ca. 3s Video)</text><text font-family="Times New Roman,Times New Roman_MSFontService,sans-serif" font-weight="400" font-size="13.3186" transform="matrix(1 0 0 0.998347 195.958 65)">HB10</text><path d="M261.718 150.504C271.368 162.774 269.154 180.576 256.772 190.266 244.391 199.956 226.531 197.864 216.88 185.594 207.23 173.324 209.444 155.522 221.826 145.832 230.3 139.2 241.776 137.87 251.483 142.395L253.714 140.551 257.798 152.75 241.48 150.668 243.431 149.055C232.908 146.882 222.527 153.625 220.245 164.115 217.963 174.605 224.644 184.871 235.167 187.043 245.69 189.216 256.071 182.473 258.353 171.983 259.577 166.357 258.236 160.505 254.692 156.002Z" stroke="#042433" stroke-width="2.00003" stroke-miterlimit="8" fill="#156082" fill-rule="evenodd"/><rect x="437" y="130.784" width="76" height="43.9273" stroke="#042433" stroke-width="2.0011" stroke-miterlimit="8" fill="#F2AA84" fill-opacity="0.8"/><text font-family="Times New Roman,Times New Roman_MSFontService,sans-serif" font-weight="400" font-size="13.3186" transform="matrix(1 0 0 0.998347 440.447 149)">Video</text><text font-family="Times New Roman,Times New Roman_MSFontService,sans-serif" font-weight="400" font-size="13.3186" transform="matrix(1 0 0 0.998347 476.467 149)">Daten</text><text font-family="Times New Roman,Times New Roman_MSFontService,sans-serif" font-weight="400" font-size="13.3186" transform="matrix(1 0 0 0.998347 440.447 165)">(H.264)</text></g></svg>