<svg width="529" height="302" xmlns="http://www.w3.org/2000/svg" xmlns:xlink="http://www.w3.org/1999/xlink" overflow="hidden"><defs><clipPath id="clip0"><rect x="0" y="0" width="529" height="302"/></clipPath></defs><g clip-path="url(#clip0)"><rect x="0" y="0" width="529" height="301.762" fill="#FFFFFF"/><path d="M329.5 146.634 425 146.634 425 145.385 427.5 147.883 425 150.381 425 149.132 329.5 149.132Z" stroke="#000000" stroke-width="0.999685" stroke-miterlimit="8" fill="none" fill-rule="evenodd"/><rect x="352" y="138.89" width="52" height="16.9866" stroke="#042433" stroke-width="1.99937" stroke-miterlimit="8" fill="#156082" fill-opacity="0.901961"/><rect x="27" y="94.9251" width="78" height="108.914" stroke="#042433" stroke-width="1.99937" stroke-miterlimit="8" fill="#156082"/><text font-family="Aptos,Aptos_MSFontService,sans-serif" font-weight="400" font-size="15.9824" transform="matrix(1 0 0 0.999212 39.0978 155)">Kamera</text><rect x="206" y="95.9244" width="122" height="108.914" stroke="#042433" stroke-width="1.99937" stroke-miterlimit="8" fill="#156082"/><text font-family="Aptos,Aptos_MSFontService,sans-serif" font-weight="400" font-size="15.9824" transform="matrix(1 0 0 0.999212 253.44 134)">Dart</text><text font-family="Aptos,Aptos_MSFontService,sans-serif" font-weight="400" font-size="15.9824" transform="matrix(1 0 0 0.999212 215.272 153)">(</text><text font-family="Aptos,Aptos_MSFontService,sans-serif" font-weight="400" font-size="15.9824" transform="matrix(1 0 0 0.999212 219.937 153)">V</text><text font-family="Aptos,Aptos_MSFontService,sans-serif" font-weight="400" font-size="15.9824" transform="matrix(1 0 0 0.999212 228.588 153)">erarbeitung &amp;</text><text font-family="Aptos,Aptos_MSFontService,sans-serif" font-weight="400" font-size="15.9824" transform="matrix(1 0 0 0.999212 220.537 172)">Kompression)</text><text font-family="Aptos,Aptos_MSFontService,sans-serif" font-weight="400" font-size="15.9824" transform="matrix(1 0 0 0.999212 357.688 153)">H.26</text><text font-family="Aptos,Aptos_MSFontService,sans-serif" font-weight="400" font-size="15.9824" transform="matrix(1 0 0 0.999212 390.511 153)">4</text><rect x="428" y="94.9251" width="77" height="108.914" stroke="#042433" stroke-width="1.99937" stroke-miterlimit="8" fill="#156082"/><text font-family="Aptos,Aptos_MSFontService,sans-serif" font-weight="400" font-size="15.9824" transform="matrix(1 0 0 0.999212 443.831 155)">Serve</text><text font-family="Aptos,Aptos_MSFontService,sans-serif" font-weight="400" font-size="15.9824" transform="matrix(1 0 0 0.999212 482.406 155)">r</text><path d="M106.5 146.634 203 146.634 203 145.385 205.5 147.883 203 150.381 203 149.132 106.5 149.132Z" stroke="#000000" stroke-width="0.999685" stroke-miterlimit="8" fill="none" fill-rule="evenodd"/><rect x="127" y="138.89" width="52" height="16.9866" stroke="#042433" stroke-width="1.99937" stroke-miterlimit="8" fill="#156082" fill-opacity="0.901961"/><text font-family="Aptos,Aptos_MSFontService,sans-serif" font-weight="400" font-size="15.9824" transform="matrix(1 0 0 0.999212 129.4 152)">MJPEG</text></g></svg>